<?xml version="1.0" standalone="no"?>
<!DOCTYPE svg PUBLIC "-//W3C//DTD SVG 20010904//EN"
 "http://www.w3.org/TR/2001/REC-SVG-20010904/DTD/svg10.dtd">
<svg version="1.0" xmlns="http://www.w3.org/2000/svg"
 width="567.000000pt" height="440.000000pt" viewBox="0 0 567.000000 440.000000"
 preserveAspectRatio="xMidYMid meet">

<g transform="translate(0.000000,440.000000) scale(0.100000,-0.100000)"
fill="#000000" stroke="none">
<path d="M3770 3564 c0 -18 34 -60 119 -149 217 -227 307 -381 374 -635 29
-110 30 -123 29 -312 -1 -166 1 -198 13 -198 18 0 41 77 56 187 23 177 -18
386 -113 578 -90 179 -269 399 -412 506 -36 27 -66 37 -66 23z"/>
<path d="M1705 3509 c-4 -6 -5 -12 -2 -15 2 -3 7 2 10 11 7 17 1 20 -8 4z"/>
<path d="M1643 3478 c4 -11 2 -15 -6 -12 -7 2 -44 -22 -83 -55 -117 -98 -217
-239 -307 -431 -68 -145 -89 -205 -128 -360 -28 -113 -32 -143 -35 -309 -2
-101 -8 -189 -12 -195 -5 -6 -19 -33 -33 -61 -13 -27 -31 -58 -39 -69 -11 -13
-15 -43 -15 -110 0 -79 4 -98 27 -141 34 -66 173 -198 224 -215 54 -17 81 -39
256 -208 166 -159 246 -223 370 -297 127 -75 313 -145 484 -180 264 -54 616
-7 899 120 94 42 255 144 316 200 55 50 64 55 186 85 52 13 87 43 107 92 l15
38 -37 0 c-52 0 -322 37 -373 50 -116 32 -264 85 -379 137 -114 52 -125 57
-132 55 -5 -1 -8 2 -8 7 0 4 -18 7 -40 5 -25 -2 -39 0 -35 6 10 16 -22 11 -39
-5 -20 -21 -76 -16 -103 8 -13 11 -26 18 -29 15 -3 -4 -14 1 -25 10 -30 26
-266 160 -349 199 -96 45 -228 88 -360 118 -321 72 -603 47 -839 -76 -41 -22
-80 -39 -87 -39 -7 0 -15 -6 -17 -12 -4 -10 -6 -10 -6 0 -3 49 127 137 267
182 171 55 283 74 447 73 355 -1 617 -86 1065 -343 389 -223 660 -321 968
-350 l122 -12 232 77 c256 85 340 120 473 194 50 28 100 51 113 51 37 0 86 25
115 59 30 36 36 67 12 57 -8 -3 -27 -1 -42 4 -15 5 -39 11 -53 13 -14 1 -35 9
-48 15 -12 7 -27 10 -32 7 -19 -12 -42 62 -31 101 9 32 5 30 -64 -42 -47 -49
-75 -71 -78 -62 -4 10 -6 9 -6 -2 -1 -15 -178 -77 -331 -117 -36 -9 -68 -21
-71 -26 -4 -5 -16 -6 -27 -3 -17 6 -19 3 -15 -15 5 -19 3 -21 -15 -17 -14 4
-25 0 -31 -10 -7 -13 -14 -14 -33 -5 -16 7 -30 8 -41 1 -19 -10 -57 -2 -57 12
0 4 -9 6 -20 3 -11 -3 -27 0 -35 7 -11 9 -15 9 -15 1 0 -12 -44 -6 -65 9 -23
16 -161 -7 -175 -30 -4 -7 -26 -9 -61 -6 -39 4 -46 3 -24 -3 28 -8 28 -9 5
-10 -72 -3 -285 87 -670 283 -300 152 -449 208 -690 256 -200 40 -278 44 -450
26 -221 -24 -272 -36 -305 -72 -5 -7 -35 -20 -65 -29 -30 -10 -91 -33 -135
-52 -75 -31 -116 -43 -87 -24 7 4 12 12 11 17 -6 22 27 63 62 79 21 10 36 22
33 27 -8 12 24 46 60 65 68 35 227 70 381 84 60 5 127 14 148 20 71 19 245 27
389 18 154 -9 227 -25 282 -58 27 -17 49 -21 102 -20 48 1 84 -5 119 -19 28
-11 90 -36 140 -56 49 -20 108 -41 130 -47 22 -5 94 -27 160 -49 123 -40 530
-144 690 -176 121 -25 296 -25 390 0 233 62 479 265 519 428 4 16 24 41 51 60
24 18 44 36 45 41 0 4 -18 7 -40 7 -93 0 -144 47 -142 131 0 27 -1 49 -3 49
-10 0 -45 -81 -45 -105 0 -30 31 -95 54 -114 23 -19 20 -40 -15 -109 -33 -67
-109 -157 -140 -167 -18 -6 -82 2 -329 41 -52 8 -142 19 -200 24 -58 6 -154
15 -215 20 -318 30 -490 60 -339 60 99 0 226 20 264 41 43 24 79 74 91 126 12
53 11 330 -2 416 -12 83 -53 226 -79 277 -40 79 -82 102 -300 165 -155 45
-204 50 -279 31 -58 -15 -234 -88 -654 -270 -109 -47 -201 -86 -204 -86 -3 0
0 6 6 13 6 8 8 16 5 20 -3 3 5 3 18 0 19 -5 21 -4 12 8 -6 8 -11 32 -10 54 2
49 -9 76 -30 68 -10 -4 -18 4 -27 26 -6 17 -16 30 -22 28 -5 -2 -27 7 -48 20
-24 15 -45 22 -58 18 -13 -4 -28 0 -41 12 -20 18 -21 18 -13 -6 5 -16 4 -21
-4 -17 -6 4 -11 19 -11 33 0 42 -40 102 -87 128 -24 13 -41 20 -38 14 4 -5 -9
-9 -28 -9 -20 0 -46 -9 -61 -21 -14 -11 -26 -16 -26 -11 0 6 6 13 13 15 9 4 8
8 -3 16 -12 8 -12 11 -1 11 10 0 11 3 2 14 -6 7 -9 21 -5 30 7 17 -11 23 -21
6 -8 -13 -39 -8 -61 10 -16 13 -17 13 -11 -2z m231 -149 c46 -36 23 -119 -34
-119 -65 0 -82 111 -20 133 24 9 26 8 54 -14z m1488 -95 c150 -37 196 -62 182
-97 -5 -15 -15 -16 -58 -11 -104 13 -268 53 -287 70 -31 28 -24 69 13 73 4 1
72 -15 150 -35z m-1390 -26 c-15 -15 -24 -6 -16 16 5 12 10 14 17 7 8 -8 8
-14 -1 -23z m1003 -449 l0 -384 -42 -3 -43 -3 0 385 0 385 22 15 c19 13 25 14
43 2 20 -13 20 -22 20 -397z m-144 121 c2 -135 2 -303 1 -373 l-2 -128 -42 3
-43 3 -3 310 c-2 171 0 334 3 363 6 47 10 54 38 66 18 7 35 11 38 7 4 -3 8
-116 10 -251z m569 184 c96 -20 180 -41 187 -47 38 -37 65 -303 34 -340 -16
-20 -105 -22 -262 -7 -211 22 -214 24 -222 191 -3 68 -13 153 -20 188 l-14 64
61 -7 c33 -3 140 -22 236 -42z m-750 -165 c0 -133 -1 -139 -22 -153 -31 -19
-148 -40 -160 -28 -16 16 -21 79 -13 177 7 94 7 96 38 112 61 31 131 51 145
41 8 -8 12 -50 12 -149z m-487 113 c14 -16 14 -18 -9 -29 -14 -6 -26 -7 -30
-2 -3 5 3 9 13 9 15 0 16 2 3 10 -13 9 -13 10 0 10 13 0 13 1 0 10 -8 5 -10
10 -4 10 6 0 18 -8 27 -18z m239 -134 c2 -113 -2 -172 -10 -179 -4 -4 -43 -14
-87 -23 -75 -16 -81 -16 -92 1 -19 25 -18 197 1 212 16 14 154 70 174 70 8 1
12 -23 14 -81z m-284 -236 l2 -212 -35 0 -35 0 0 209 c0 191 2 210 18 214 47
13 47 15 50 -211z m-111 -8 c-3 -108 -7 -197 -9 -198 -1 -2 -15 -6 -31 -10
l-27 -6 2 192 3 192 25 13 c14 7 29 13 34 13 5 0 7 -82 3 -196z m-119 54 c3
-71 1 -78 -20 -91 -13 -8 -38 -17 -55 -21 l-33 -5 0 79 c0 80 0 80 33 100 17
11 41 19 52 18 18 -3 20 -12 23 -80z m-158 -95 c0 -65 3 -134 6 -154 5 -31 3
-37 -15 -42 -14 -3 -24 1 -31 13 -11 21 -14 283 -3 293 3 4 15 7 25 7 16 0 18
-10 18 -117z m-90 34 c0 -30 3 -95 6 -145 l7 -92 -27 0 -26 0 0 138 c0 76 3
142 7 145 3 4 12 7 20 7 9 0 13 -16 13 -53z m-102 -59 l-3 -62 -57 -17 c-31
-9 -59 -14 -63 -11 -10 11 -5 101 7 109 20 13 92 42 106 42 10 1 12 -15 10
-61z m-177 -15 c3 -41 -3 -169 -7 -185 -3 -10 -10 -18 -15 -18 -5 0 -9 49 -9
110 0 91 3 110 15 110 8 0 15 -8 16 -17z m1886 -5 c31 -29 30 -71 -3 -97 -15
-12 -32 -21 -39 -21 -28 0 -65 41 -65 72 0 63 61 89 107 46z m370 0 c28 -27
30 -67 3 -96 -27 -29 -46 -28 -75 4 -32 34 -32 58 0 89 30 31 42 31 72 3z
m-2331 -195 c-3 -7 -10 -13 -16 -13 -15 0 -13 183 3 199 10 10 13 -6 15 -80 1
-51 1 -98 -2 -106z m1268 158 c65 -68 25 -201 -60 -201 -24 0 -78 55 -89 90
-12 37 4 87 36 114 41 34 78 33 113 -3z m-1336 -43 c-3 -39 -6 -43 -30 -46
-25 -3 -28 0 -28 29 0 32 22 58 48 59 9 0 12 -12 10 -42z m-78 -32 c0 -22 -6
-36 -16 -40 -24 -9 -24 -9 -24 34 0 33 3 40 20 40 16 0 20 -7 20 -34z m345
-35 c12 -38 -22 -73 -45 -46 -18 21 -4 65 20 65 10 0 21 -8 25 -19z m1491
-111 c60 -6 172 -26 249 -45 77 -18 161 -37 188 -40 26 -4 47 -11 47 -15 0 -5
26 -6 58 -3 31 2 75 1 97 -4 l40 -9 -39 -13 c-49 -17 -106 -50 -106 -62 0 -18
54 -8 138 27 80 33 92 36 156 30 95 -9 106 -16 70 -50 -16 -14 -44 -31 -62
-37 -19 -6 -46 -17 -60 -25 -36 -19 -52 -18 -162 10 -52 13 -131 32 -175 41
l-79 18 49 23 c28 13 39 21 25 17 -14 -4 -61 -6 -105 -6 -79 0 -127 10 -315
68 -41 13 -98 28 -125 35 -60 13 -80 24 -71 39 9 14 43 14 182 1z m1172 -180
c124 -14 152 -20 152 -29 0 -9 -51 -32 -125 -56 -86 -28 -264 -37 -350 -17
l-40 9 48 13 c26 7 74 30 106 50 61 40 87 50 109 44 7 -2 52 -8 100 -14z
m-2249 -275 c112 -22 246 -68 355 -121 115 -57 160 -86 341 -220 203 -150 284
-203 390 -256 114 -58 263 -113 339 -127 33 -6 62 -13 64 -16 12 -11 -99 8
-199 35 -154 42 -317 126 -520 268 -198 139 -218 152 -227 152 -6 0 -12 7 -16
15 -3 9 -18 15 -38 15 -38 0 -63 13 -54 28 7 11 -16 22 -46 22 -12 0 -22 8
-25 20 -6 23 -82 66 -84 47 0 -8 -2 -8 -6 1 -14 34 -164 84 -358 117 -104 18
-284 24 -370 13 -40 -6 -44 -5 -20 2 99 33 319 35 474 5z"/>
<path d="M1670 3479 c0 -5 5 -7 10 -4 6 3 10 8 10 11 0 2 -4 4 -10 4 -5 0 -10
-5 -10 -11z"/>
<path d="M1755 3470 c-3 -5 -1 -10 4 -10 6 0 11 5 11 10 0 6 -2 10 -4 10 -3 0
-8 -4 -11 -10z"/>
<path d="M1763 3425 c0 -7 6 -11 14 -8 7 3 13 6 13 8 0 2 -6 5 -13 8 -8 3 -14
-1 -14 -8z"/>
<path d="M1895 3428 c8 -21 14 -22 35 -7 13 9 13 10 -1 6 -9 -3 -22 0 -28 6
-9 9 -11 8 -6 -5z"/>
<path d="M1985 3321 c-3 -6 0 -11 7 -11 10 0 10 -2 0 -8 -9 -7 -8 -13 7 -26
20 -18 20 -18 11 14 -11 39 -16 45 -25 31z"/>
<path d="M2247 3079 c7 -7 15 -10 18 -7 3 3 -2 9 -12 12 -14 6 -15 5 -6 -5z"/>
<path d="M4266 1318 c-27 -41 -29 -74 -8 -120 23 -52 67 -78 132 -78 36 0 48
6 81 39 23 22 37 45 34 53 -10 25 -59 46 -120 53 -73 9 -72 8 -80 45 -8 36
-19 38 -39 8z"/>
</g>
</svg>
